# xmcd CD database file
#
# Track frame offsets:
#	150
#	13441
#	25346
#	41188
#	57710
#	71487
#	86205
#	104108
#	118540
#	123551
#	139252
#	154644
#	172061
#	181558
#	193599
#	208777
#	221134
#
# Disc length: 3265 seconds
#
# Revision: 0
# Processed by: cddbd v1.4PL0 Copyright (c) Steve Scherf et al.
# Submitted via: CDex 1.50beta9
#
DISCID=0e0cbf11
DTITLE=Bluebyrds - Born With The Blues
DYEAR=1900
DGENRE=Blues
TTITLE0=Thunder and Lightnin'
TTITLE1=I'm Hot
TTITLE2=R.I.P.
TTITLE3=Born With The Blues
TTITLE4=Have Mercy On A Fool Like Me
TTITLE5=Little Doggie Boogie
TTITLE6=Pourin' Rain
TTITLE7=The Day I Wanted You To Love Me Too
TTITLE8=Take Three
TTITLE9=It Ain't Easy
TTITLE10=Leadbelly
TTITLE11=Feel The Cold Wind Blow
TTITLE12=Don't Drink Cheap Whiskey Nomore
TTITLE13=Gotta Get Out Of Here
TTITLE14=I've Got To Go
TTITLE15=Bluebird
TTITLE16=Backyard Blues
EXTD=
EXTT0=
EXTT1=
EXTT2=
EXTT3=
EXTT4=
EXTT5=
EXTT6=
EXTT7=
EXTT8=
EXTT9=
EXTT10=
EXTT11=
EXTT12=
EXTT13=
EXTT14=
EXTT15=
EXTT16=
PLAYORDER=
